<mxfile host="app.diagrams.net" modified="2024-06-17T23:36:07.432Z" agent="Mozilla/5.0 (Windows NT 10.0; Win64; x64) AppleWebKit/537.36 (KHTML, like Gecko) Chrome/121.0.0.0 Safari/537.36" etag="Gb9T1pCRfw731-s5cRhJ" version="24.4.2" type="device">
  <diagram name="Page-1" id="a2q9vcDrFQMr7ZfCxEm_">
    <mxGraphModel dx="821" dy="538" grid="1" gridSize="10" guides="1" tooltips="1" connect="1" arrows="1" fold="1" page="1" pageScale="1" pageWidth="850" pageHeight="1100" math="0" shadow="0">
      <root>
        <mxCell id="0" />
        <mxCell id="1" parent="0" />
        <mxCell id="JJ-Ic_SHMX0S3m1b6MAq-3" value="" style="edgeStyle=orthogonalEdgeStyle;rounded=0;orthogonalLoop=1;jettySize=auto;html=1;" edge="1" parent="1" source="JJ-Ic_SHMX0S3m1b6MAq-1" target="JJ-Ic_SHMX0S3m1b6MAq-2">
          <mxGeometry relative="1" as="geometry" />
        </mxCell>
        <mxCell id="JJ-Ic_SHMX0S3m1b6MAq-5" value="" style="edgeStyle=orthogonalEdgeStyle;rounded=0;orthogonalLoop=1;jettySize=auto;html=1;" edge="1" parent="1" source="JJ-Ic_SHMX0S3m1b6MAq-1" target="JJ-Ic_SHMX0S3m1b6MAq-4">
          <mxGeometry relative="1" as="geometry" />
        </mxCell>
        <mxCell id="JJ-Ic_SHMX0S3m1b6MAq-7" value="" style="edgeStyle=orthogonalEdgeStyle;rounded=0;orthogonalLoop=1;jettySize=auto;html=1;" edge="1" parent="1" source="JJ-Ic_SHMX0S3m1b6MAq-1" target="JJ-Ic_SHMX0S3m1b6MAq-6">
          <mxGeometry relative="1" as="geometry" />
        </mxCell>
        <mxCell id="JJ-Ic_SHMX0S3m1b6MAq-15" value="Request&amp;nbsp;&lt;div&gt;Transaction logs&lt;/div&gt;" style="edgeLabel;html=1;align=center;verticalAlign=middle;resizable=0;points=[];" vertex="1" connectable="0" parent="JJ-Ic_SHMX0S3m1b6MAq-7">
          <mxGeometry x="-0.1565" y="1" relative="1" as="geometry">
            <mxPoint x="36" as="offset" />
          </mxGeometry>
        </mxCell>
        <mxCell id="JJ-Ic_SHMX0S3m1b6MAq-9" value="" style="edgeStyle=orthogonalEdgeStyle;rounded=0;orthogonalLoop=1;jettySize=auto;html=1;" edge="1" parent="1" source="JJ-Ic_SHMX0S3m1b6MAq-1" target="JJ-Ic_SHMX0S3m1b6MAq-8">
          <mxGeometry relative="1" as="geometry" />
        </mxCell>
        <mxCell id="JJ-Ic_SHMX0S3m1b6MAq-1" value="&lt;b style=&quot;font-size: 21px;&quot;&gt;&lt;font style=&quot;font-size: 21px;&quot;&gt;DELIVERY MANAGEMENT&lt;/font&gt;&lt;/b&gt;&lt;div style=&quot;font-size: 21px;&quot;&gt;&lt;b style=&quot;&quot;&gt;&lt;font style=&quot;font-size: 21px;&quot;&gt;SYSTEM&lt;/font&gt;&lt;/b&gt;&lt;/div&gt;" style="rounded=1;whiteSpace=wrap;html=1;fillColor=#dae8fc;strokeColor=#6c8ebf;" vertex="1" parent="1">
          <mxGeometry x="320" y="360" width="230" height="160" as="geometry" />
        </mxCell>
        <mxCell id="JJ-Ic_SHMX0S3m1b6MAq-2" value="CUSTOMER&lt;div&gt;(sender)&lt;/div&gt;" style="ellipse;whiteSpace=wrap;html=1;rounded=1;fillColor=#f5f5f5;fontColor=#333333;strokeColor=#666666;" vertex="1" parent="1">
          <mxGeometry x="90" y="410" width="110" height="60" as="geometry" />
        </mxCell>
        <mxCell id="JJ-Ic_SHMX0S3m1b6MAq-4" value="CUSTOMER&lt;div&gt;(receiver)&lt;/div&gt;" style="ellipse;whiteSpace=wrap;html=1;rounded=1;fillColor=#f5f5f5;fontColor=#333333;strokeColor=#666666;" vertex="1" parent="1">
          <mxGeometry x="650" y="410" width="110" height="60" as="geometry" />
        </mxCell>
        <mxCell id="JJ-Ic_SHMX0S3m1b6MAq-6" value="ADMIN" style="ellipse;whiteSpace=wrap;html=1;rounded=1;fillColor=#f5f5f5;fontColor=#333333;strokeColor=#666666;" vertex="1" parent="1">
          <mxGeometry x="380" y="150" width="110" height="60" as="geometry" />
        </mxCell>
        <mxCell id="JJ-Ic_SHMX0S3m1b6MAq-8" value="DELIVERY CAR" style="ellipse;whiteSpace=wrap;html=1;rounded=1;fillColor=#f5f5f5;fontColor=#333333;strokeColor=#666666;" vertex="1" parent="1">
          <mxGeometry x="380" y="640" width="110" height="60" as="geometry" />
        </mxCell>
        <mxCell id="JJ-Ic_SHMX0S3m1b6MAq-10" value="a" style="text;html=1;align=center;verticalAlign=middle;resizable=0;points=[];autosize=1;strokeColor=none;fillColor=none;fontStyle=1" vertex="1" parent="1">
          <mxGeometry x="130" y="404" width="30" height="30" as="geometry" />
        </mxCell>
        <mxCell id="JJ-Ic_SHMX0S3m1b6MAq-11" value="b" style="text;html=1;align=center;verticalAlign=middle;resizable=0;points=[];autosize=1;strokeColor=none;fillColor=none;fontStyle=1" vertex="1" parent="1">
          <mxGeometry x="690" y="404" width="30" height="30" as="geometry" />
        </mxCell>
      </root>
    </mxGraphModel>
  </diagram>
</mxfile>
